# Made in Blockbench 5.1.6
mtllib mish.mtl

o cuboid
v 0 0.265625 -0.0625
v 0.084375 0.159375 -0.19375
v 0.0625 0.29375 -0.19375
v -0.084375 0.159375 -0.19375
v -0.0625 0.29375 -0.19375
vt 0.059579375 0.4736175
vt 0.002920625 0.5
vt 0.002920625 0.4259684375
vt 0.2825734375 0.5924
vt 0.3580515625 0.5546875
vt 0.3580515625 0.6490746875
vt 0.41796875 0.71875
vt 0.40703125 0.65625
vt 0.49140625 0.65625
vt 0.48046875 0.71875
vt 0.4609375 0.47957031250000004
vt 0.4079275 0.53125
vt 0.4079275 0.43686375
vt 0.50063625 0.57199
vt 0.4489565625 0.625
vt 0.40625 0.57199
vn 0 0.9778024140774096 0.20952908873087359
vn 0 -0.7772448707074855 0.6291982286679645
vn 0 0 -1
vn 0.8812376609632864 0.14345729364518617 0.45037783004934295
vn -0.8812376609632864 0.14345729364518617 0.4503778300493429
usemtl m_47da5944-1555-71b7-7945-8af0cac80bc2
f 3/1/1 5/2/1 1/3/1
f 4/4/2 2/5/2 1/6/2
f 3/7/3 2/8/3 4/9/3 5/10/3
f 3/11/4 1/12/4 2/13/4
f 1/14/5 5/15/5 4/16/5
o plane
v 0.04375 0.28437500000000004 -0.1625
v 0.16875 0.22187500000000002 -0.1
v 0.10625 0.09687500000000002 -0.1625
v -0.04375 0.28437500000000004 -0.1625
v -0.16875 0.22187500000000002 -0.1
v -0.10625 0.09687500000000002 -0.1625
vt 0.40625 0.8984375
vt 0.4647103125 0.9478453125
vt 0.40625 0.9972559375
vt 0.145901875 0.5897103125000001
vt 0.0964940625 0.53125
vt 0.1953125 0.53125
vn -0.5070925528371099 -0.16903085094570328 0.8451542547285166
vn 0.50709255283711 -0.16903085094570328 0.8451542547285166
usemtl m_47da5944-1555-71b7-7945-8af0cac80bc2
f 8/17/6 7/18/6 6/19/6
f 10/20/7 11/21/7 9/22/7
o plane
v 0.09375 0.0031250000000000028 0.275
v 0.09375 0.0031250000000000028 -0.225
v 0 0.140625 0.275
v 0 0.221875 -0.15
v -0.09375 0.0031250000000000028 0.275
v -0.09375 0.0031250000000000028 -0.225
vt 0 0.875
vt 0.25 0.875
vt 0.2125 1
vt 0 0.962659375
vt 0.375 0.775
vt 0.46875 0.775
vt 0.421875 0.84375
vt 0.327238125 0.984375
vt 0.27997625 0.8743925
vt 0.37372625 0.8743925
vt 0.0375 0.84375
vt 0 0.71875
vt 0.25 0.71875
vt 0.25 0.806409375
vn 0.919145030018058 0.39391929857916774 0
vn 0 0 1
vn 0 0.3243243243243244 -0.9459459459459459
vn -0.919145030018058 0.39391929857916774 0
usemtl m_47da5944-1555-71b7-7945-8af0cac80bc2
f 12/23/8 13/24/8 15/25/8 14/26/8
f 16/27/9 12/28/9 14/29/9
f 15/30/10 13/31/10 17/32/10
f 15/33/11 17/34/11 16/35/11 14/36/11
o plane
v 0 0.265625 0.4
v 0 0.078125 0.275
v 0 0.078125 0.2125
vt 0.0579234375 0.28147999999999995
vt 0.0579234375 0.4140625
vt 0.0358265625 0.30357718749999996
vn 1 0 0
usemtl m_47da5944-1555-71b7-7945-8af0cac80bc2
f 20/37/12 18/38/12 19/39/12
o pyramid
v 0 0.09375 0.275
v 0.03125 0.046875 0.290625
v 0 0.078125 0.2125
v -0.03125 0.046875 0.290625
vt 0.1416025 0.42611406249999995
vt 0.1708975 0.41523437500000004
vt 0.1708975 0.4601140625
vt 0.203125 0.44117281249999996
vt 0.248005625 0.44117281249999996
vt 0.22352875 0.46210937500000004
vt 0.140625 0.343653125
vt 0.171875 0.343653125
vt 0.15625 0.36835937500000004
vt 0.2056259375 0.39960937500000004
vt 0.2056259375 0.35472875000000004
vt 0.2265625 0.3751325
vn 0 -0.9284766908852594 -0.3713906763541037
vn 0.8444407432001202 0.5196558419693047 -0.12991396049232617
vn 0 0.316227766016838 0.948683298050514
vn -0.8444407432001202 0.5196558419693047 -0.12991396049232617
usemtl m_47da5944-1555-71b7-7945-8af0cac80bc2
f 22/40/13 24/41/13 23/42/13
f 22/43/14 23/44/14 21/45/14
f 24/46/15 22/47/15 21/48/15
f 23/49/16 24/50/16 21/51/16
o plane
v 0 0.265625 0.4
v 0 0.078125 0.275
v 0 0.078125 0.2125
vt 0.0579234375 0.4140625
vt 0.0579234375 0.28147999999999995
vt 0.0358265625 0.30357718749999996
vn -1 0 0
usemtl m_47da5944-1555-71b7-7945-8af0cac80bc2
f 25/52/17 27/53/17 26/54/17
o cuboid
v 0 0.22187500000000004 -0.09375
v 0 0.24687499999999996 -0.33125000000000004
v -0.0625 0.140625 -0.33125000000000004
v 0.0625 0.140625 -0.33125000000000004
vt 0.2821759375 0.7295128125
vt 0.3428240625 0.7144118749999999
vt 0.3428240625 0.84375
vt 0.5 0.946875
vt 0.5625 0.946875
vt 0.53125 1
vt 0.097221875 0.625
vt 0.2265625 0.625
vt 0.121458125 0.6816681250000001
vt 0 0.684028125
vt 0 0.5546875
vt 0.056668125 0.57892375
vn 0 -0.9461639849533561 0.3236876790629904
vn 0 0 -1
vn -0.8607092584669869 0.5062995638041101 0.05329469092674823
vn 0.8607092584669868 0.5062995638041101 0.05329469092674824
usemtl m_47da5944-1555-71b7-7945-8af0cac80bc2
f 30/55/18 31/56/18 28/57/18
f 31/58/19 30/59/19 29/60/19
f 30/61/20 28/62/20 29/63/20
f 28/64/21 31/65/21 29/66/21
o plane
v -0.043749999999999956 0.28437500000000004 -0.16249999999999998
v -0.16874999999999996 0.22187500000000002 -0.09999999999999998
v -0.10624999999999996 0.09687500000000002 -0.16249999999999998
v 0.04375000000000004 0.28437500000000004 -0.16249999999999998
v 0.16875000000000007 0.22187500000000002 -0.09999999999999998
v 0.10625000000000004 0.09687500000000002 -0.16249999999999998
vt 0.40625 0.8984375
vt 0.4647103125 0.9478453125
vt 0.40625 0.9972559375
vt 0.145901875 0.5897103125000001
vt 0.0964940625 0.53125
vt 0.1953125 0.53125
vn -0.5070925528371101 0.1690308509457033 -0.8451542547285167
vn 0.5070925528371099 0.16903085094570328 -0.8451542547285167
usemtl m_47da5944-1555-71b7-7945-8af0cac80bc2
f 34/67/22 33/68/22 32/69/22
f 36/70/23 37/71/23 35/72/23